<mxfile host="app.diagrams.net" agent="Mozilla/5.0 (Windows NT 10.0; Win64; x64) AppleWebKit/537.36 (KHTML, like Gecko) Chrome/134.0.0.0 Safari/537.36" version="26.1.1">
  <diagram name="Page-1" id="4wWl1dHHpy27Ok1aCria">
    <mxGraphModel dx="1050" dy="1691" grid="1" gridSize="10" guides="1" tooltips="1" connect="1" arrows="1" fold="1" page="1" pageScale="1" pageWidth="827" pageHeight="1169" math="0" shadow="0">
      <root>
        <mxCell id="0" />
        <mxCell id="1" parent="0" />
        <mxCell id="T_okKtb9aYraSjKtRI3u-1" value="&lt;span style=&quot;font-size: 15px;&quot;&gt;&lt;b&gt;User&lt;/b&gt;&lt;/span&gt;&lt;div&gt;&lt;span style=&quot;font-size: 15px;&quot;&gt;&lt;b&gt;2&lt;/b&gt;&lt;/span&gt;&lt;/div&gt;" style="rounded=0;whiteSpace=wrap;html=1;" parent="1" vertex="1">
          <mxGeometry x="170" y="505" width="100" height="60" as="geometry" />
        </mxCell>
        <mxCell id="T_okKtb9aYraSjKtRI3u-2" value="&lt;b&gt;Manage&lt;/b&gt;&lt;div&gt;&lt;b&gt;Custom&amp;nbsp;&lt;/b&gt;&lt;/div&gt;&lt;div&gt;&lt;b&gt;PcBuliding&lt;/b&gt;&lt;/div&gt;&lt;div&gt;&lt;b&gt;(2.3)&lt;/b&gt;&lt;/div&gt;" style="ellipse;whiteSpace=wrap;html=1;aspect=fixed;" parent="1" vertex="1">
          <mxGeometry x="508" y="-18" width="80" height="80" as="geometry" />
        </mxCell>
        <mxCell id="_YxjMNwKWZmT2BZVth4K-20" value="" style="edgeStyle=orthogonalEdgeStyle;rounded=0;orthogonalLoop=1;jettySize=auto;html=1;" parent="1" edge="1">
          <mxGeometry relative="1" as="geometry">
            <mxPoint x="586" y="-154" as="sourcePoint" />
            <mxPoint x="659" y="-154" as="targetPoint" />
          </mxGeometry>
        </mxCell>
        <mxCell id="T_okKtb9aYraSjKtRI3u-3" value="&lt;b&gt;Search&lt;/b&gt;&lt;div&gt;&lt;b&gt;PcBulider&lt;br&gt;&lt;/b&gt;&lt;div&gt;&lt;b&gt;(2.2)&lt;/b&gt;&lt;/div&gt;&lt;/div&gt;" style="ellipse;whiteSpace=wrap;html=1;aspect=fixed;" parent="1" vertex="1">
          <mxGeometry x="506" y="-175" width="80" height="80" as="geometry" />
        </mxCell>
        <mxCell id="_YxjMNwKWZmT2BZVth4K-25" value="" style="edgeStyle=orthogonalEdgeStyle;rounded=0;orthogonalLoop=1;jettySize=auto;html=1;" parent="1" edge="1">
          <mxGeometry relative="1" as="geometry">
            <mxPoint x="587" y="123" as="sourcePoint" />
            <mxPoint x="663" y="123" as="targetPoint" />
          </mxGeometry>
        </mxCell>
        <mxCell id="T_okKtb9aYraSjKtRI3u-4" value="&lt;b&gt;add&lt;/b&gt;&lt;div&gt;&lt;b&gt;Feedback&lt;/b&gt;&lt;div&gt;&lt;b&gt;(2.4)&lt;/b&gt;&lt;/div&gt;&lt;/div&gt;" style="ellipse;whiteSpace=wrap;html=1;aspect=fixed;" parent="1" vertex="1">
          <mxGeometry x="506" y="94" width="80" height="80" as="geometry" />
        </mxCell>
        <mxCell id="_YxjMNwKWZmT2BZVth4K-21" value="" style="edgeStyle=orthogonalEdgeStyle;rounded=0;orthogonalLoop=1;jettySize=auto;html=1;" parent="1" edge="1">
          <mxGeometry relative="1" as="geometry">
            <mxPoint x="658" y="-126" as="sourcePoint" />
            <mxPoint x="585" y="-126" as="targetPoint" />
          </mxGeometry>
        </mxCell>
        <mxCell id="T_okKtb9aYraSjKtRI3u-5" value="&lt;b&gt;collectionpcbulider&lt;/b&gt;" style="strokeWidth=2;html=1;shape=mxgraph.flowchart.annotation_1;align=center;pointerEvents=1;" parent="1" vertex="1">
          <mxGeometry x="659" y="-163" width="110" height="50" as="geometry" />
        </mxCell>
        <mxCell id="T_okKtb9aYraSjKtRI3u-6" value="&lt;b&gt;collectioncustom&lt;/b&gt;" style="strokeWidth=2;html=1;shape=mxgraph.flowchart.annotation_1;align=center;pointerEvents=1;" parent="1" vertex="1">
          <mxGeometry x="664" y="42" width="110" height="50" as="geometry" />
        </mxCell>
        <mxCell id="_YxjMNwKWZmT2BZVth4K-24" value="" style="edgeStyle=orthogonalEdgeStyle;rounded=0;orthogonalLoop=1;jettySize=auto;html=1;" parent="1" edge="1">
          <mxGeometry relative="1" as="geometry">
            <mxPoint x="660" y="147" as="sourcePoint" />
            <mxPoint x="584" y="147" as="targetPoint" />
          </mxGeometry>
        </mxCell>
        <mxCell id="T_okKtb9aYraSjKtRI3u-7" value="&lt;b&gt;collectionfeedback&lt;/b&gt;" style="strokeWidth=2;html=1;shape=mxgraph.flowchart.annotation_1;align=center;pointerEvents=1;" parent="1" vertex="1">
          <mxGeometry x="662" y="109" width="110" height="50" as="geometry" />
        </mxCell>
        <mxCell id="_YxjMNwKWZmT2BZVth4K-1" value="&lt;b&gt;add&lt;/b&gt;&lt;div&gt;&lt;b&gt;Complaint&lt;br&gt;&lt;/b&gt;&lt;div&gt;&lt;b&gt;(2.5)&lt;/b&gt;&lt;/div&gt;&lt;/div&gt;" style="ellipse;whiteSpace=wrap;html=1;aspect=fixed;" parent="1" vertex="1">
          <mxGeometry x="506" y="237" width="80" height="80" as="geometry" />
        </mxCell>
        <mxCell id="_YxjMNwKWZmT2BZVth4K-29" value="" style="edgeStyle=orthogonalEdgeStyle;rounded=0;orthogonalLoop=1;jettySize=auto;html=1;" parent="1" edge="1">
          <mxGeometry relative="1" as="geometry">
            <mxPoint x="585" y="414" as="sourcePoint" />
            <mxPoint x="662" y="414" as="targetPoint" />
          </mxGeometry>
        </mxCell>
        <mxCell id="_YxjMNwKWZmT2BZVth4K-2" value="&lt;b&gt;Manage&lt;/b&gt;&lt;div&gt;&lt;b&gt;profile&lt;/b&gt;&lt;/div&gt;&lt;div&gt;&lt;b&gt;(2.6)&lt;/b&gt;&lt;/div&gt;" style="ellipse;whiteSpace=wrap;html=1;aspect=fixed;" parent="1" vertex="1">
          <mxGeometry x="505" y="387" width="80" height="80" as="geometry" />
        </mxCell>
        <mxCell id="_YxjMNwKWZmT2BZVth4K-31" value="" style="edgeStyle=orthogonalEdgeStyle;rounded=0;orthogonalLoop=1;jettySize=auto;html=1;" parent="1" edge="1">
          <mxGeometry relative="1" as="geometry">
            <mxPoint x="583" y="515" as="sourcePoint" />
            <mxPoint x="660" y="515" as="targetPoint" />
          </mxGeometry>
        </mxCell>
        <mxCell id="_YxjMNwKWZmT2BZVth4K-3" value="&lt;b&gt;Add&lt;/b&gt;&lt;div&gt;&lt;b&gt;Enquiry&lt;/b&gt;&lt;/div&gt;&lt;div&gt;&lt;b&gt;(2.7)&lt;/b&gt;&lt;/div&gt;" style="ellipse;whiteSpace=wrap;html=1;aspect=fixed;" parent="1" vertex="1">
          <mxGeometry x="504" y="490" width="80" height="80" as="geometry" />
        </mxCell>
        <mxCell id="_YxjMNwKWZmT2BZVth4K-5" value="&lt;b&gt;View&lt;/b&gt;&lt;div&gt;&lt;b&gt;Parts&lt;/b&gt;&lt;/div&gt;&lt;div&gt;&lt;b&gt;(1.8)&lt;/b&gt;&lt;/div&gt;" style="ellipse;whiteSpace=wrap;html=1;aspect=fixed;" parent="1" vertex="1">
          <mxGeometry x="380" y="796" width="114" height="114" as="geometry" />
        </mxCell>
        <mxCell id="_YxjMNwKWZmT2BZVth4K-30" value="" style="edgeStyle=orthogonalEdgeStyle;rounded=0;orthogonalLoop=1;jettySize=auto;html=1;" parent="1" edge="1">
          <mxGeometry relative="1" as="geometry">
            <mxPoint x="659" y="544" as="sourcePoint" />
            <mxPoint x="582" y="544" as="targetPoint" />
          </mxGeometry>
        </mxCell>
        <mxCell id="_YxjMNwKWZmT2BZVth4K-6" value="&lt;b&gt;collectionenquiry&lt;/b&gt;" style="strokeWidth=2;html=1;shape=mxgraph.flowchart.annotation_1;align=center;pointerEvents=1;" parent="1" vertex="1">
          <mxGeometry x="661" y="505" width="110" height="50" as="geometry" />
        </mxCell>
        <mxCell id="_YxjMNwKWZmT2BZVth4K-8" value="&lt;b&gt;collectioncomplaint&lt;/b&gt;" style="strokeWidth=2;html=1;shape=mxgraph.flowchart.annotation_1;align=center;pointerEvents=1;" parent="1" vertex="1">
          <mxGeometry x="661" y="304" width="110" height="50" as="geometry" />
        </mxCell>
        <mxCell id="_YxjMNwKWZmT2BZVth4K-28" value="" style="edgeStyle=orthogonalEdgeStyle;rounded=0;orthogonalLoop=1;jettySize=auto;html=1;" parent="1" edge="1">
          <mxGeometry relative="1" as="geometry">
            <mxPoint x="660" y="443" as="sourcePoint" />
            <mxPoint x="583" y="443" as="targetPoint" />
          </mxGeometry>
        </mxCell>
        <mxCell id="_YxjMNwKWZmT2BZVth4K-9" value="&lt;b&gt;collectionuser&lt;/b&gt;" style="strokeWidth=2;html=1;shape=mxgraph.flowchart.annotation_1;align=center;pointerEvents=1;" parent="1" vertex="1">
          <mxGeometry x="662" y="402" width="110" height="50" as="geometry" />
        </mxCell>
        <mxCell id="_YxjMNwKWZmT2BZVth4K-13" value="" style="endArrow=classic;html=1;rounded=0;exitX=1;exitY=0.5;exitDx=0;exitDy=0;entryX=0;entryY=0.5;entryDx=0;entryDy=0;" parent="1" source="T_okKtb9aYraSjKtRI3u-1" target="T_okKtb9aYraSjKtRI3u-3" edge="1">
          <mxGeometry width="50" height="50" relative="1" as="geometry">
            <mxPoint x="390" y="370" as="sourcePoint" />
            <mxPoint x="440" y="320" as="targetPoint" />
          </mxGeometry>
        </mxCell>
        <mxCell id="_YxjMNwKWZmT2BZVth4K-14" value="" style="endArrow=classic;html=1;rounded=0;exitX=1;exitY=0.5;exitDx=0;exitDy=0;entryX=0;entryY=0.5;entryDx=0;entryDy=0;" parent="1" source="T_okKtb9aYraSjKtRI3u-1" target="T_okKtb9aYraSjKtRI3u-2" edge="1">
          <mxGeometry width="50" height="50" relative="1" as="geometry">
            <mxPoint x="390" y="370" as="sourcePoint" />
            <mxPoint x="440" y="320" as="targetPoint" />
          </mxGeometry>
        </mxCell>
        <mxCell id="_YxjMNwKWZmT2BZVth4K-15" value="" style="endArrow=classic;html=1;rounded=0;exitX=1;exitY=0.5;exitDx=0;exitDy=0;entryX=0;entryY=0.5;entryDx=0;entryDy=0;" parent="1" source="T_okKtb9aYraSjKtRI3u-1" target="T_okKtb9aYraSjKtRI3u-4" edge="1">
          <mxGeometry width="50" height="50" relative="1" as="geometry">
            <mxPoint x="390" y="370" as="sourcePoint" />
            <mxPoint x="440" y="320" as="targetPoint" />
          </mxGeometry>
        </mxCell>
        <mxCell id="_YxjMNwKWZmT2BZVth4K-16" value="" style="endArrow=classic;html=1;rounded=0;exitX=1;exitY=0.5;exitDx=0;exitDy=0;entryX=0;entryY=0.5;entryDx=0;entryDy=0;" parent="1" source="T_okKtb9aYraSjKtRI3u-1" target="_YxjMNwKWZmT2BZVth4K-1" edge="1">
          <mxGeometry width="50" height="50" relative="1" as="geometry">
            <mxPoint x="390" y="370" as="sourcePoint" />
            <mxPoint x="440" y="320" as="targetPoint" />
          </mxGeometry>
        </mxCell>
        <mxCell id="_YxjMNwKWZmT2BZVth4K-17" value="" style="endArrow=classic;html=1;rounded=0;exitX=1;exitY=0.5;exitDx=0;exitDy=0;entryX=0;entryY=0.5;entryDx=0;entryDy=0;" parent="1" source="T_okKtb9aYraSjKtRI3u-1" target="_YxjMNwKWZmT2BZVth4K-2" edge="1">
          <mxGeometry width="50" height="50" relative="1" as="geometry">
            <mxPoint x="390" y="560" as="sourcePoint" />
            <mxPoint x="440" y="510" as="targetPoint" />
          </mxGeometry>
        </mxCell>
        <mxCell id="_YxjMNwKWZmT2BZVth4K-18" value="" style="endArrow=classic;html=1;rounded=0;exitX=1;exitY=0.5;exitDx=0;exitDy=0;entryX=0;entryY=0.5;entryDx=0;entryDy=0;" parent="1" source="T_okKtb9aYraSjKtRI3u-1" target="_YxjMNwKWZmT2BZVth4K-3" edge="1">
          <mxGeometry width="50" height="50" relative="1" as="geometry">
            <mxPoint x="390" y="560" as="sourcePoint" />
            <mxPoint x="440" y="510" as="targetPoint" />
          </mxGeometry>
        </mxCell>
        <mxCell id="_YxjMNwKWZmT2BZVth4K-19" value="" style="endArrow=classic;html=1;rounded=0;exitX=1;exitY=0.5;exitDx=0;exitDy=0;entryX=0;entryY=0.5;entryDx=0;entryDy=0;" parent="1" source="T_okKtb9aYraSjKtRI3u-1" target="_YxjMNwKWZmT2BZVth4K-5" edge="1">
          <mxGeometry width="50" height="50" relative="1" as="geometry">
            <mxPoint x="290" y="530" as="sourcePoint" />
            <mxPoint x="340" y="480" as="targetPoint" />
          </mxGeometry>
        </mxCell>
        <mxCell id="_YxjMNwKWZmT2BZVth4K-34" value="&lt;b&gt;pcbuliderName&lt;/b&gt;" style="text;html=1;align=center;verticalAlign=middle;resizable=0;points=[];autosize=1;strokeColor=none;fillColor=none;" parent="1" vertex="1">
          <mxGeometry x="567" y="-121" width="110" height="30" as="geometry" />
        </mxCell>
        <mxCell id="_YxjMNwKWZmT2BZVth4K-35" value="&lt;b&gt;pcbuliderId&lt;/b&gt;" style="text;html=1;align=center;verticalAlign=middle;resizable=0;points=[];autosize=1;strokeColor=none;fillColor=none;" parent="1" vertex="1">
          <mxGeometry x="570" y="-178" width="90" height="30" as="geometry" />
        </mxCell>
        <mxCell id="_YxjMNwKWZmT2BZVth4K-36" value="&lt;b&gt;customId&lt;/b&gt;" style="text;html=1;align=center;verticalAlign=middle;resizable=0;points=[];autosize=1;strokeColor=none;fillColor=none;" parent="1" vertex="1">
          <mxGeometry x="596" y="16" width="70" height="30" as="geometry" />
        </mxCell>
        <mxCell id="_YxjMNwKWZmT2BZVth4K-37" value="&lt;b&gt;customDetails&lt;/b&gt;" style="text;html=1;align=center;verticalAlign=middle;resizable=0;points=[];autosize=1;strokeColor=none;fillColor=none;" parent="1" vertex="1">
          <mxGeometry x="554" y="64" width="100" height="30" as="geometry" />
        </mxCell>
        <mxCell id="_YxjMNwKWZmT2BZVth4K-39" value="&lt;b&gt;feedbackId&lt;/b&gt;" style="text;html=1;align=center;verticalAlign=middle;resizable=0;points=[];autosize=1;strokeColor=none;fillColor=none;" parent="1" vertex="1">
          <mxGeometry x="577" y="95" width="90" height="30" as="geometry" />
        </mxCell>
        <mxCell id="_YxjMNwKWZmT2BZVth4K-41" value="&lt;b&gt;feedback&lt;/b&gt;&lt;div&gt;&lt;b&gt;Content&lt;/b&gt;&lt;/div&gt;" style="text;html=1;align=center;verticalAlign=middle;resizable=0;points=[];autosize=1;strokeColor=none;fillColor=none;" parent="1" vertex="1">
          <mxGeometry x="581" y="154" width="80" height="40" as="geometry" />
        </mxCell>
        <mxCell id="_YxjMNwKWZmT2BZVth4K-42" value="&lt;b&gt;complaintId&lt;/b&gt;" style="text;html=1;align=center;verticalAlign=middle;resizable=0;points=[];autosize=1;strokeColor=none;fillColor=none;rotation=25;" parent="1" vertex="1">
          <mxGeometry x="581" y="287" width="90" height="30" as="geometry" />
        </mxCell>
        <mxCell id="_YxjMNwKWZmT2BZVth4K-43" value="&lt;b&gt;complaint&lt;/b&gt;&lt;div&gt;&lt;b&gt;Content&lt;/b&gt;&lt;/div&gt;" style="text;html=1;align=center;verticalAlign=middle;resizable=0;points=[];autosize=1;strokeColor=none;fillColor=none;rotation=20;" parent="1" vertex="1">
          <mxGeometry x="574" y="328" width="80" height="40" as="geometry" />
        </mxCell>
        <mxCell id="_YxjMNwKWZmT2BZVth4K-44" value="&lt;b&gt;userId&lt;/b&gt;" style="text;html=1;align=center;verticalAlign=middle;resizable=0;points=[];autosize=1;strokeColor=none;fillColor=none;" parent="1" vertex="1">
          <mxGeometry x="584" y="393" width="60" height="30" as="geometry" />
        </mxCell>
        <mxCell id="_YxjMNwKWZmT2BZVth4K-46" value="&lt;b&gt;userDetails&lt;/b&gt;" style="text;html=1;align=center;verticalAlign=middle;resizable=0;points=[];autosize=1;strokeColor=none;fillColor=none;" parent="1" vertex="1">
          <mxGeometry x="575" y="437" width="90" height="30" as="geometry" />
        </mxCell>
        <mxCell id="_YxjMNwKWZmT2BZVth4K-48" value="&lt;b&gt;enquiryId&lt;/b&gt;" style="text;html=1;align=center;verticalAlign=middle;resizable=0;points=[];autosize=1;strokeColor=none;fillColor=none;" parent="1" vertex="1">
          <mxGeometry x="584" y="546" width="80" height="30" as="geometry" />
        </mxCell>
        <mxCell id="_YxjMNwKWZmT2BZVth4K-49" value="&lt;b&gt;enquiryDetails&lt;/b&gt;" style="text;html=1;align=center;verticalAlign=middle;resizable=0;points=[];autosize=1;strokeColor=none;fillColor=none;" parent="1" vertex="1">
          <mxGeometry x="566" y="475" width="110" height="30" as="geometry" />
        </mxCell>
        <mxCell id="1mcNjhh6cpEedBmguTBu-1" value="&lt;b&gt;collectionpcbulider&lt;/b&gt;" style="strokeWidth=2;html=1;shape=mxgraph.flowchart.annotation_1;align=center;pointerEvents=1;" parent="1" vertex="1">
          <mxGeometry x="666" y="-82" width="110" height="50" as="geometry" />
        </mxCell>
        <mxCell id="1mcNjhh6cpEedBmguTBu-2" value="" style="endArrow=classic;html=1;rounded=0;entryX=-0.013;entryY=0.732;entryDx=0;entryDy=0;entryPerimeter=0;" parent="1" edge="1">
          <mxGeometry width="50" height="50" relative="1" as="geometry">
            <mxPoint x="581" y="-11" as="sourcePoint" />
            <mxPoint x="664.5699999999999" y="-54.40000000000009" as="targetPoint" />
          </mxGeometry>
        </mxCell>
        <mxCell id="1mcNjhh6cpEedBmguTBu-3" value="" style="endArrow=classic;html=1;rounded=0;exitX=-0.013;exitY=0.348;exitDx=0;exitDy=0;exitPerimeter=0;entryX=0.607;entryY=-0.012;entryDx=0;entryDy=0;entryPerimeter=0;" parent="1" source="1mcNjhh6cpEedBmguTBu-1" target="T_okKtb9aYraSjKtRI3u-2" edge="1">
          <mxGeometry width="50" height="50" relative="1" as="geometry">
            <mxPoint x="531" y="-22" as="sourcePoint" />
            <mxPoint x="581" y="-72" as="targetPoint" />
          </mxGeometry>
        </mxCell>
        <mxCell id="1mcNjhh6cpEedBmguTBu-4" value="&lt;b&gt;pcbuliderId&lt;/b&gt;" style="text;html=1;align=center;verticalAlign=middle;resizable=0;points=[];autosize=1;strokeColor=none;fillColor=none;rotation=-20;" parent="1" vertex="1">
          <mxGeometry x="581" y="-32" width="90" height="30" as="geometry" />
        </mxCell>
        <mxCell id="1mcNjhh6cpEedBmguTBu-5" value="" style="endArrow=classic;html=1;rounded=0;exitX=-0.009;exitY=0.764;exitDx=0;exitDy=0;exitPerimeter=0;" parent="1" source="T_okKtb9aYraSjKtRI3u-6" edge="1">
          <mxGeometry width="50" height="50" relative="1" as="geometry">
            <mxPoint x="541" y="138" as="sourcePoint" />
            <mxPoint x="581" y="48" as="targetPoint" />
          </mxGeometry>
        </mxCell>
        <mxCell id="1mcNjhh6cpEedBmguTBu-6" value="" style="endArrow=classic;html=1;rounded=0;exitX=0.967;exitY=0.628;exitDx=0;exitDy=0;exitPerimeter=0;entryX=0.005;entryY=0.332;entryDx=0;entryDy=0;entryPerimeter=0;" parent="1" source="T_okKtb9aYraSjKtRI3u-2" target="T_okKtb9aYraSjKtRI3u-6" edge="1">
          <mxGeometry width="50" height="50" relative="1" as="geometry">
            <mxPoint x="601" y="38" as="sourcePoint" />
            <mxPoint x="651" y="-12" as="targetPoint" />
          </mxGeometry>
        </mxCell>
        <mxCell id="1mcNjhh6cpEedBmguTBu-9" value="&lt;b&gt;pcbuliderName&lt;/b&gt;" style="text;html=1;align=center;verticalAlign=middle;resizable=0;points=[];autosize=1;strokeColor=none;fillColor=none;rotation=-15;" parent="1" vertex="1">
          <mxGeometry x="548" y="-72" width="110" height="30" as="geometry" />
        </mxCell>
        <mxCell id="1mcNjhh6cpEedBmguTBu-10" value="&lt;b&gt;collectionpcbulider&lt;/b&gt;" style="strokeWidth=2;html=1;shape=mxgraph.flowchart.annotation_1;align=center;pointerEvents=1;" parent="1" vertex="1">
          <mxGeometry x="662" y="210" width="110" height="50" as="geometry" />
        </mxCell>
        <mxCell id="1mcNjhh6cpEedBmguTBu-11" value="" style="endArrow=classic;html=1;rounded=0;exitX=0.772;exitY=0.095;exitDx=0;exitDy=0;exitPerimeter=0;entryX=-0.005;entryY=0.356;entryDx=0;entryDy=0;entryPerimeter=0;" parent="1" source="_YxjMNwKWZmT2BZVth4K-1" edge="1">
          <mxGeometry width="50" height="50" relative="1" as="geometry">
            <mxPoint x="582.1600000000001" y="245" as="sourcePoint" />
            <mxPoint x="661.45" y="213.79999999999995" as="targetPoint" />
          </mxGeometry>
        </mxCell>
        <mxCell id="1mcNjhh6cpEedBmguTBu-12" value="" style="endArrow=classic;html=1;rounded=0;exitX=0;exitY=0.5;exitDx=0;exitDy=0;exitPerimeter=0;entryX=0.902;entryY=0.315;entryDx=0;entryDy=0;entryPerimeter=0;" parent="1" source="1mcNjhh6cpEedBmguTBu-10" target="_YxjMNwKWZmT2BZVth4K-1" edge="1">
          <mxGeometry width="50" height="50" relative="1" as="geometry">
            <mxPoint x="611" y="320" as="sourcePoint" />
            <mxPoint x="661" y="270" as="targetPoint" />
          </mxGeometry>
        </mxCell>
        <mxCell id="1mcNjhh6cpEedBmguTBu-13" value="" style="endArrow=classic;html=1;rounded=0;exitX=0.942;exitY=0.595;exitDx=0;exitDy=0;exitPerimeter=0;entryX=0;entryY=0.5;entryDx=0;entryDy=0;entryPerimeter=0;" parent="1" source="_YxjMNwKWZmT2BZVth4K-1" target="_YxjMNwKWZmT2BZVth4K-8" edge="1">
          <mxGeometry width="50" height="50" relative="1" as="geometry">
            <mxPoint x="601" y="330" as="sourcePoint" />
            <mxPoint x="651" y="280" as="targetPoint" />
          </mxGeometry>
        </mxCell>
        <mxCell id="1mcNjhh6cpEedBmguTBu-17" value="" style="endArrow=classic;html=1;rounded=0;entryX=1;entryY=1;entryDx=0;entryDy=0;exitX=-0.069;exitY=0.724;exitDx=0;exitDy=0;exitPerimeter=0;" parent="1" source="_YxjMNwKWZmT2BZVth4K-8" target="_YxjMNwKWZmT2BZVth4K-1" edge="1">
          <mxGeometry width="50" height="50" relative="1" as="geometry">
            <mxPoint x="587" y="312" as="sourcePoint" />
            <mxPoint x="471" y="310" as="targetPoint" />
          </mxGeometry>
        </mxCell>
        <mxCell id="1mcNjhh6cpEedBmguTBu-18" value="&lt;b&gt;pcbuliderId&lt;/b&gt;" style="text;html=1;align=center;verticalAlign=middle;resizable=0;points=[];autosize=1;strokeColor=none;fillColor=none;rotation=-15;" parent="1" vertex="1">
          <mxGeometry x="562" y="207" width="90" height="30" as="geometry" />
        </mxCell>
        <mxCell id="1mcNjhh6cpEedBmguTBu-19" value="&lt;b&gt;pcbulider&lt;/b&gt;&lt;div&gt;&lt;b&gt;Name&lt;/b&gt;&lt;/div&gt;" style="text;html=1;align=center;verticalAlign=middle;resizable=0;points=[];autosize=1;strokeColor=none;fillColor=none;rotation=-15;" parent="1" vertex="1">
          <mxGeometry x="592" y="244" width="80" height="40" as="geometry" />
        </mxCell>
        <mxCell id="1mcNjhh6cpEedBmguTBu-20" value="&lt;b&gt;collectionram&lt;/b&gt;" style="strokeWidth=2;html=1;shape=mxgraph.flowchart.annotation_1;align=center;pointerEvents=1;" parent="1" vertex="1">
          <mxGeometry x="661" y="576" width="109" height="50" as="geometry" />
        </mxCell>
        <mxCell id="1mcNjhh6cpEedBmguTBu-22" value="&lt;b&gt;collectionstorage&lt;/b&gt;" style="strokeWidth=2;html=1;shape=mxgraph.flowchart.annotation_1;align=center;pointerEvents=1;" parent="1" vertex="1">
          <mxGeometry x="663" y="661" width="109" height="50" as="geometry" />
        </mxCell>
        <mxCell id="1mcNjhh6cpEedBmguTBu-23" value="&lt;b&gt;collectionsmps&lt;/b&gt;" style="strokeWidth=2;html=1;shape=mxgraph.flowchart.annotation_1;align=center;pointerEvents=1;" parent="1" vertex="1">
          <mxGeometry x="663" y="743" width="109" height="50" as="geometry" />
        </mxCell>
        <mxCell id="1mcNjhh6cpEedBmguTBu-24" value="&lt;b&gt;collectionmotherboard&lt;/b&gt;" style="strokeWidth=2;html=1;shape=mxgraph.flowchart.annotation_1;align=center;pointerEvents=1;" parent="1" vertex="1">
          <mxGeometry x="662" y="822" width="138" height="50" as="geometry" />
        </mxCell>
        <mxCell id="1mcNjhh6cpEedBmguTBu-25" value="&lt;b&gt;collectiongraphiccard&lt;/b&gt;" style="strokeWidth=2;html=1;shape=mxgraph.flowchart.annotation_1;align=center;pointerEvents=1;" parent="1" vertex="1">
          <mxGeometry x="664" y="910" width="136" height="50" as="geometry" />
        </mxCell>
        <mxCell id="1mcNjhh6cpEedBmguTBu-26" value="&lt;b&gt;collectioncpu&lt;/b&gt;" style="strokeWidth=2;html=1;shape=mxgraph.flowchart.annotation_1;align=center;pointerEvents=1;" parent="1" vertex="1">
          <mxGeometry x="670" y="1000" width="120" height="50" as="geometry" />
        </mxCell>
        <mxCell id="1mcNjhh6cpEedBmguTBu-27" value="&lt;b&gt;collectioncompany&lt;/b&gt;" style="strokeWidth=2;html=1;shape=mxgraph.flowchart.annotation_1;align=center;pointerEvents=1;" parent="1" vertex="1">
          <mxGeometry x="668" y="1102" width="120" height="50" as="geometry" />
        </mxCell>
        <mxCell id="1mcNjhh6cpEedBmguTBu-28" value="&lt;b&gt;collectioncooler&lt;/b&gt;" style="strokeWidth=2;html=1;shape=mxgraph.flowchart.annotation_1;align=center;pointerEvents=1;" parent="1" vertex="1">
          <mxGeometry x="667" y="1215" width="121" height="50" as="geometry" />
        </mxCell>
        <mxCell id="1mcNjhh6cpEedBmguTBu-29" value="&lt;b&gt;collectioncase&lt;/b&gt;" style="strokeWidth=2;html=1;shape=mxgraph.flowchart.annotation_1;align=center;pointerEvents=1;" parent="1" vertex="1">
          <mxGeometry x="660" y="1316" width="121" height="50" as="geometry" />
        </mxCell>
        <mxCell id="1mcNjhh6cpEedBmguTBu-30" value="" style="endArrow=classic;html=1;rounded=0;exitX=1;exitY=0;exitDx=0;exitDy=0;entryX=-0.065;entryY=0.815;entryDx=0;entryDy=0;entryPerimeter=0;" parent="1" source="_YxjMNwKWZmT2BZVth4K-5" target="1mcNjhh6cpEedBmguTBu-20" edge="1">
          <mxGeometry width="50" height="50" relative="1" as="geometry">
            <mxPoint x="540" y="730" as="sourcePoint" />
            <mxPoint x="590" y="680" as="targetPoint" />
          </mxGeometry>
        </mxCell>
        <mxCell id="1mcNjhh6cpEedBmguTBu-31" value="" style="endArrow=classic;html=1;rounded=0;entryX=-0.074;entryY=0.716;entryDx=0;entryDy=0;entryPerimeter=0;exitX=0.979;exitY=0.378;exitDx=0;exitDy=0;exitPerimeter=0;" parent="1" source="_YxjMNwKWZmT2BZVth4K-5" target="1mcNjhh6cpEedBmguTBu-22" edge="1">
          <mxGeometry width="50" height="50" relative="1" as="geometry">
            <mxPoint x="490" y="860" as="sourcePoint" />
            <mxPoint x="590" y="940" as="targetPoint" />
          </mxGeometry>
        </mxCell>
        <mxCell id="1mcNjhh6cpEedBmguTBu-32" value="" style="endArrow=classic;html=1;rounded=0;exitX=1.029;exitY=0.519;exitDx=0;exitDy=0;exitPerimeter=0;entryX=0;entryY=0.5;entryDx=0;entryDy=0;entryPerimeter=0;" parent="1" source="_YxjMNwKWZmT2BZVth4K-5" target="1mcNjhh6cpEedBmguTBu-23" edge="1">
          <mxGeometry width="50" height="50" relative="1" as="geometry">
            <mxPoint x="499" y="872" as="sourcePoint" />
            <mxPoint x="665" y="726" as="targetPoint" />
          </mxGeometry>
        </mxCell>
        <mxCell id="1mcNjhh6cpEedBmguTBu-33" value="" style="endArrow=classic;html=1;rounded=0;exitX=0.952;exitY=0.667;exitDx=0;exitDy=0;exitPerimeter=0;entryX=-0.044;entryY=0.728;entryDx=0;entryDy=0;entryPerimeter=0;" parent="1" source="_YxjMNwKWZmT2BZVth4K-5" target="1mcNjhh6cpEedBmguTBu-24" edge="1">
          <mxGeometry width="50" height="50" relative="1" as="geometry">
            <mxPoint x="509" y="882" as="sourcePoint" />
            <mxPoint x="672" y="795" as="targetPoint" />
          </mxGeometry>
        </mxCell>
        <mxCell id="1mcNjhh6cpEedBmguTBu-34" value="" style="endArrow=classic;html=1;rounded=0;exitX=0.903;exitY=0.82;exitDx=0;exitDy=0;exitPerimeter=0;entryX=-0.033;entryY=0.8;entryDx=0;entryDy=0;entryPerimeter=0;" parent="1" source="_YxjMNwKWZmT2BZVth4K-5" target="1mcNjhh6cpEedBmguTBu-25" edge="1">
          <mxGeometry width="50" height="50" relative="1" as="geometry">
            <mxPoint x="500" y="893" as="sourcePoint" />
            <mxPoint x="667" y="876" as="targetPoint" />
          </mxGeometry>
        </mxCell>
        <mxCell id="1mcNjhh6cpEedBmguTBu-35" value="" style="endArrow=classic;html=1;rounded=0;exitX=0.825;exitY=0.92;exitDx=0;exitDy=0;exitPerimeter=0;entryX=-0.033;entryY=0.742;entryDx=0;entryDy=0;entryPerimeter=0;" parent="1" source="_YxjMNwKWZmT2BZVth4K-5" target="1mcNjhh6cpEedBmguTBu-26" edge="1">
          <mxGeometry width="50" height="50" relative="1" as="geometry">
            <mxPoint x="496" y="906" as="sourcePoint" />
            <mxPoint x="670" y="960" as="targetPoint" />
          </mxGeometry>
        </mxCell>
        <mxCell id="1mcNjhh6cpEedBmguTBu-36" value="" style="endArrow=classic;html=1;rounded=0;entryX=-0.031;entryY=0.858;entryDx=0;entryDy=0;entryPerimeter=0;exitX=0.715;exitY=0.977;exitDx=0;exitDy=0;exitPerimeter=0;" parent="1" source="_YxjMNwKWZmT2BZVth4K-5" target="1mcNjhh6cpEedBmguTBu-27" edge="1">
          <mxGeometry width="50" height="50" relative="1" as="geometry">
            <mxPoint x="480" y="920" as="sourcePoint" />
            <mxPoint x="670" y="1037" as="targetPoint" />
          </mxGeometry>
        </mxCell>
        <mxCell id="1mcNjhh6cpEedBmguTBu-37" value="" style="endArrow=classic;html=1;rounded=0;entryX=-0.022;entryY=0.813;entryDx=0;entryDy=0;entryPerimeter=0;" parent="1" target="1mcNjhh6cpEedBmguTBu-28" edge="1">
          <mxGeometry width="50" height="50" relative="1" as="geometry">
            <mxPoint x="450" y="920" as="sourcePoint" />
            <mxPoint x="670" y="1123" as="targetPoint" />
          </mxGeometry>
        </mxCell>
        <mxCell id="1mcNjhh6cpEedBmguTBu-38" value="" style="endArrow=classic;html=1;rounded=0;entryX=-0.025;entryY=0.8;entryDx=0;entryDy=0;entryPerimeter=0;" parent="1" target="1mcNjhh6cpEedBmguTBu-29" edge="1">
          <mxGeometry width="50" height="50" relative="1" as="geometry">
            <mxPoint x="430" y="920" as="sourcePoint" />
            <mxPoint x="670" y="1201" as="targetPoint" />
          </mxGeometry>
        </mxCell>
        <mxCell id="1mcNjhh6cpEedBmguTBu-39" value="" style="endArrow=classic;html=1;rounded=0;exitX=0;exitY=0.5;exitDx=0;exitDy=0;exitPerimeter=0;entryX=0.714;entryY=0.082;entryDx=0;entryDy=0;entryPerimeter=0;" parent="1" source="1mcNjhh6cpEedBmguTBu-20" target="_YxjMNwKWZmT2BZVth4K-5" edge="1">
          <mxGeometry width="50" height="50" relative="1" as="geometry">
            <mxPoint x="450" y="770" as="sourcePoint" />
            <mxPoint x="480" y="820" as="targetPoint" />
          </mxGeometry>
        </mxCell>
        <mxCell id="1mcNjhh6cpEedBmguTBu-40" value="" style="endArrow=classic;html=1;rounded=0;exitX=-0.059;exitY=0.26;exitDx=0;exitDy=0;exitPerimeter=0;entryX=0.932;entryY=0.302;entryDx=0;entryDy=0;entryPerimeter=0;" parent="1" source="1mcNjhh6cpEedBmguTBu-22" target="_YxjMNwKWZmT2BZVth4K-5" edge="1">
          <mxGeometry width="50" height="50" relative="1" as="geometry">
            <mxPoint x="400" y="770" as="sourcePoint" />
            <mxPoint x="450" y="720" as="targetPoint" />
          </mxGeometry>
        </mxCell>
        <mxCell id="1mcNjhh6cpEedBmguTBu-41" value="" style="endArrow=classic;html=1;rounded=0;exitX=-0.015;exitY=0.333;exitDx=0;exitDy=0;exitPerimeter=0;entryX=1.016;entryY=0.43;entryDx=0;entryDy=0;entryPerimeter=0;" parent="1" source="1mcNjhh6cpEedBmguTBu-23" target="_YxjMNwKWZmT2BZVth4K-5" edge="1">
          <mxGeometry width="50" height="50" relative="1" as="geometry">
            <mxPoint x="667" y="686" as="sourcePoint" />
            <mxPoint x="499" y="864" as="targetPoint" />
          </mxGeometry>
        </mxCell>
        <mxCell id="1mcNjhh6cpEedBmguTBu-42" value="" style="endArrow=classic;html=1;rounded=0;exitX=-0.029;exitY=0.405;exitDx=0;exitDy=0;exitPerimeter=0;entryX=1.005;entryY=0.579;entryDx=0;entryDy=0;entryPerimeter=0;" parent="1" source="1mcNjhh6cpEedBmguTBu-24" target="_YxjMNwKWZmT2BZVth4K-5" edge="1">
          <mxGeometry width="50" height="50" relative="1" as="geometry">
            <mxPoint x="670" y="787" as="sourcePoint" />
            <mxPoint x="505" y="874" as="targetPoint" />
          </mxGeometry>
        </mxCell>
        <mxCell id="1mcNjhh6cpEedBmguTBu-43" value="" style="endArrow=classic;html=1;rounded=0;exitX=0;exitY=0.359;exitDx=0;exitDy=0;exitPerimeter=0;entryX=0.936;entryY=0.716;entryDx=0;entryDy=0;entryPerimeter=0;" parent="1" source="1mcNjhh6cpEedBmguTBu-25" target="_YxjMNwKWZmT2BZVth4K-5" edge="1">
          <mxGeometry width="50" height="50" relative="1" as="geometry">
            <mxPoint x="669" y="860" as="sourcePoint" />
            <mxPoint x="504" y="886" as="targetPoint" />
          </mxGeometry>
        </mxCell>
        <mxCell id="1mcNjhh6cpEedBmguTBu-44" value="" style="endArrow=classic;html=1;rounded=0;exitX=-0.046;exitY=0.378;exitDx=0;exitDy=0;exitPerimeter=0;entryX=1;entryY=1;entryDx=0;entryDy=0;" parent="1" source="1mcNjhh6cpEedBmguTBu-26" target="_YxjMNwKWZmT2BZVth4K-5" edge="1">
          <mxGeometry width="50" height="50" relative="1" as="geometry">
            <mxPoint x="674" y="938" as="sourcePoint" />
            <mxPoint x="483" y="899" as="targetPoint" />
          </mxGeometry>
        </mxCell>
        <mxCell id="1mcNjhh6cpEedBmguTBu-46" value="" style="endArrow=classic;html=1;rounded=0;exitX=0;exitY=0.5;exitDx=0;exitDy=0;exitPerimeter=0;entryX=0.772;entryY=0.957;entryDx=0;entryDy=0;entryPerimeter=0;" parent="1" source="1mcNjhh6cpEedBmguTBu-27" target="_YxjMNwKWZmT2BZVth4K-5" edge="1">
          <mxGeometry width="50" height="50" relative="1" as="geometry">
            <mxPoint x="490" y="1180" as="sourcePoint" />
            <mxPoint x="470" y="910" as="targetPoint" />
          </mxGeometry>
        </mxCell>
        <mxCell id="1mcNjhh6cpEedBmguTBu-47" value="" style="endArrow=classic;html=1;rounded=0;exitX=0;exitY=0.5;exitDx=0;exitDy=0;exitPerimeter=0;entryX=0.685;entryY=1.01;entryDx=0;entryDy=0;entryPerimeter=0;" parent="1" source="1mcNjhh6cpEedBmguTBu-28" target="_YxjMNwKWZmT2BZVth4K-5" edge="1">
          <mxGeometry width="50" height="50" relative="1" as="geometry">
            <mxPoint x="500" y="1180" as="sourcePoint" />
            <mxPoint x="460" y="920" as="targetPoint" />
            <Array as="points" />
          </mxGeometry>
        </mxCell>
        <mxCell id="1mcNjhh6cpEedBmguTBu-48" value="" style="endArrow=classic;html=1;rounded=0;entryX=0.511;entryY=1.033;entryDx=0;entryDy=0;entryPerimeter=0;exitX=-0.035;exitY=0.324;exitDx=0;exitDy=0;exitPerimeter=0;" parent="1" source="1mcNjhh6cpEedBmguTBu-29" target="_YxjMNwKWZmT2BZVth4K-5" edge="1">
          <mxGeometry width="50" height="50" relative="1" as="geometry">
            <mxPoint x="660" y="1246.8570963541667" as="sourcePoint" />
            <mxPoint x="468" y="921" as="targetPoint" />
            <Array as="points" />
          </mxGeometry>
        </mxCell>
        <mxCell id="1mcNjhh6cpEedBmguTBu-49" value="&lt;b&gt;ramId&lt;/b&gt;" style="text;html=1;align=center;verticalAlign=middle;resizable=0;points=[];autosize=1;strokeColor=none;fillColor=none;rotation=-45;" parent="1" vertex="1">
          <mxGeometry x="609" y="640" width="50" height="30" as="geometry" />
        </mxCell>
        <mxCell id="1mcNjhh6cpEedBmguTBu-50" value="&lt;b&gt;ramName&lt;/b&gt;" style="text;html=1;align=center;verticalAlign=middle;resizable=0;points=[];autosize=1;strokeColor=none;fillColor=none;rotation=-45;" parent="1" vertex="1">
          <mxGeometry x="546" y="635" width="80" height="30" as="geometry" />
        </mxCell>
        <mxCell id="1mcNjhh6cpEedBmguTBu-51" value="&lt;b&gt;storageId&lt;/b&gt;" style="text;html=1;align=center;verticalAlign=middle;resizable=0;points=[];autosize=1;strokeColor=none;fillColor=none;rotation=-45;" parent="1" vertex="1">
          <mxGeometry x="587" y="720" width="80" height="30" as="geometry" />
        </mxCell>
        <mxCell id="1mcNjhh6cpEedBmguTBu-52" value="&lt;b&gt;storageName&lt;/b&gt;" style="text;html=1;align=center;verticalAlign=middle;resizable=0;points=[];autosize=1;strokeColor=none;fillColor=none;rotation=-45;" parent="1" vertex="1">
          <mxGeometry x="544" y="700" width="100" height="30" as="geometry" />
        </mxCell>
        <mxCell id="1mcNjhh6cpEedBmguTBu-54" value="&lt;b&gt;smpsId&lt;/b&gt;" style="text;html=1;align=center;verticalAlign=middle;resizable=0;points=[];autosize=1;strokeColor=none;fillColor=none;rotation=-25;" parent="1" vertex="1">
          <mxGeometry x="595" y="790" width="60" height="30" as="geometry" />
        </mxCell>
        <mxCell id="1mcNjhh6cpEedBmguTBu-55" value="&lt;b&gt;smpsName&lt;/b&gt;" style="text;html=1;align=center;verticalAlign=middle;resizable=0;points=[];autosize=1;strokeColor=none;fillColor=none;rotation=-30;" parent="1" vertex="1">
          <mxGeometry x="554" y="760" width="90" height="30" as="geometry" />
        </mxCell>
        <mxCell id="1mcNjhh6cpEedBmguTBu-56" value="&lt;b&gt;motherboardId&lt;/b&gt;" style="text;html=1;align=center;verticalAlign=middle;resizable=0;points=[];autosize=1;strokeColor=none;fillColor=none;rotation=0;" parent="1" vertex="1">
          <mxGeometry x="557" y="857" width="110" height="30" as="geometry" />
        </mxCell>
        <mxCell id="1mcNjhh6cpEedBmguTBu-57" value="&lt;b&gt;motherboardName&lt;/b&gt;" style="text;html=1;align=center;verticalAlign=middle;resizable=0;points=[];autosize=1;strokeColor=none;fillColor=none;rotation=-10;glass=1;" parent="1" vertex="1">
          <mxGeometry x="538" y="822" width="130" height="30" as="geometry" />
        </mxCell>
        <mxCell id="ccoUwBxs5Os8PXnln8q1-1" value="&lt;b&gt;graphiccardId&lt;/b&gt;" style="text;html=1;align=center;verticalAlign=middle;resizable=0;points=[];autosize=1;strokeColor=none;fillColor=none;rotation=15;" parent="1" vertex="1">
          <mxGeometry x="546" y="922" width="100" height="30" as="geometry" />
        </mxCell>
        <mxCell id="ccoUwBxs5Os8PXnln8q1-2" value="&lt;b&gt;graphiccardName&lt;/b&gt;" style="text;html=1;align=center;verticalAlign=middle;resizable=0;points=[];autosize=1;strokeColor=none;fillColor=none;rotation=15;" parent="1" vertex="1">
          <mxGeometry x="550" y="886" width="120" height="30" as="geometry" />
        </mxCell>
        <mxCell id="ccoUwBxs5Os8PXnln8q1-4" value="&lt;b&gt;cpuId&lt;/b&gt;" style="text;html=1;align=center;verticalAlign=middle;resizable=0;points=[];autosize=1;strokeColor=none;fillColor=none;rotation=30;" parent="1" vertex="1">
          <mxGeometry x="580" y="990" width="50" height="30" as="geometry" />
        </mxCell>
        <mxCell id="ccoUwBxs5Os8PXnln8q1-5" value="&lt;b&gt;cpuName&lt;/b&gt;" style="text;html=1;align=center;verticalAlign=middle;resizable=0;points=[];autosize=1;strokeColor=none;fillColor=none;rotation=30;" parent="1" vertex="1">
          <mxGeometry x="591" y="967" width="80" height="30" as="geometry" />
        </mxCell>
        <mxCell id="ccoUwBxs5Os8PXnln8q1-6" value="&lt;b&gt;companyId&lt;/b&gt;" style="text;html=1;align=center;verticalAlign=middle;resizable=0;points=[];autosize=1;strokeColor=none;fillColor=none;rotation=40;" parent="1" vertex="1">
          <mxGeometry x="566" y="1080" width="80" height="30" as="geometry" />
        </mxCell>
        <mxCell id="ccoUwBxs5Os8PXnln8q1-9" value="&lt;b&gt;companyName&lt;/b&gt;" style="text;html=1;align=center;verticalAlign=middle;resizable=0;points=[];autosize=1;strokeColor=none;fillColor=none;rotation=35;" parent="1" vertex="1">
          <mxGeometry x="576" y="1040" width="110" height="30" as="geometry" />
        </mxCell>
        <mxCell id="ccoUwBxs5Os8PXnln8q1-10" value="&lt;b&gt;coolerId&lt;/b&gt;" style="text;html=1;align=center;verticalAlign=middle;resizable=0;points=[];autosize=1;strokeColor=none;fillColor=none;rotation=50;" parent="1" vertex="1">
          <mxGeometry x="576" y="1174" width="70" height="30" as="geometry" />
        </mxCell>
        <mxCell id="ccoUwBxs5Os8PXnln8q1-13" value="&lt;b&gt;coolerName&lt;/b&gt;" style="text;html=1;align=center;verticalAlign=middle;resizable=0;points=[];autosize=1;strokeColor=none;fillColor=none;rotation=50;" parent="1" vertex="1">
          <mxGeometry x="592" y="1160" width="90" height="30" as="geometry" />
        </mxCell>
        <mxCell id="ccoUwBxs5Os8PXnln8q1-14" value="&lt;b&gt;caseName&lt;/b&gt;" style="text;html=1;align=center;verticalAlign=middle;resizable=0;points=[];autosize=1;strokeColor=none;fillColor=none;rotation=45;" parent="1" vertex="1">
          <mxGeometry x="602" y="1250" width="80" height="30" as="geometry" />
        </mxCell>
        <mxCell id="ccoUwBxs5Os8PXnln8q1-15" value="&lt;b&gt;caseId&lt;/b&gt;" style="text;html=1;align=center;verticalAlign=middle;resizable=0;points=[];autosize=1;strokeColor=none;fillColor=none;" parent="1" vertex="1">
          <mxGeometry x="568" y="1300" width="60" height="30" as="geometry" />
        </mxCell>
        <mxCell id="ccoUwBxs5Os8PXnln8q1-18" value="" style="edgeStyle=orthogonalEdgeStyle;rounded=0;orthogonalLoop=1;jettySize=auto;html=1;" parent="1" edge="1">
          <mxGeometry relative="1" as="geometry">
            <mxPoint x="583" y="-252" as="sourcePoint" />
            <mxPoint x="656" y="-252" as="targetPoint" />
          </mxGeometry>
        </mxCell>
        <mxCell id="ccoUwBxs5Os8PXnln8q1-19" value="&lt;b&gt;Search&lt;/b&gt;&lt;div&gt;&lt;b&gt;Pre-Bulid Pc&lt;br&gt;&lt;/b&gt;&lt;div&gt;&lt;b&gt;(2.1)&lt;/b&gt;&lt;/div&gt;&lt;/div&gt;" style="ellipse;whiteSpace=wrap;html=1;aspect=fixed;" parent="1" vertex="1">
          <mxGeometry x="503" y="-273" width="80" height="80" as="geometry" />
        </mxCell>
        <mxCell id="ccoUwBxs5Os8PXnln8q1-20" value="" style="edgeStyle=orthogonalEdgeStyle;rounded=0;orthogonalLoop=1;jettySize=auto;html=1;" parent="1" edge="1">
          <mxGeometry relative="1" as="geometry">
            <mxPoint x="655" y="-224" as="sourcePoint" />
            <mxPoint x="582" y="-224" as="targetPoint" />
          </mxGeometry>
        </mxCell>
        <mxCell id="ccoUwBxs5Os8PXnln8q1-21" value="&lt;b&gt;collectionprebulid&lt;/b&gt;" style="strokeWidth=2;html=1;shape=mxgraph.flowchart.annotation_1;align=center;pointerEvents=1;" parent="1" vertex="1">
          <mxGeometry x="656" y="-261" width="110" height="50" as="geometry" />
        </mxCell>
        <mxCell id="ccoUwBxs5Os8PXnln8q1-22" value="&lt;b&gt;Pre-Bulid&amp;nbsp;&lt;/b&gt;&lt;div&gt;&lt;b&gt;Pc Details&lt;/b&gt;&lt;/div&gt;" style="text;html=1;align=center;verticalAlign=middle;resizable=0;points=[];autosize=1;strokeColor=none;fillColor=none;" parent="1" vertex="1">
          <mxGeometry x="579" y="-219" width="80" height="40" as="geometry" />
        </mxCell>
        <mxCell id="ccoUwBxs5Os8PXnln8q1-23" value="&lt;b&gt;Pre-Bulid Pc Id&lt;/b&gt;" style="text;html=1;align=center;verticalAlign=middle;resizable=0;points=[];autosize=1;strokeColor=none;fillColor=none;" parent="1" vertex="1">
          <mxGeometry x="557" y="-276" width="110" height="30" as="geometry" />
        </mxCell>
        <mxCell id="ccoUwBxs5Os8PXnln8q1-24" value="" style="endArrow=classic;html=1;rounded=0;entryX=0;entryY=0.5;entryDx=0;entryDy=0;exitX=1;exitY=0.5;exitDx=0;exitDy=0;" parent="1" source="T_okKtb9aYraSjKtRI3u-1" target="ccoUwBxs5Os8PXnln8q1-19" edge="1">
          <mxGeometry width="50" height="50" relative="1" as="geometry">
            <mxPoint x="230" y="380" as="sourcePoint" />
            <mxPoint x="450" y="-160" as="targetPoint" />
          </mxGeometry>
        </mxCell>
      </root>
    </mxGraphModel>
  </diagram>
</mxfile>
